REM DIRINDEX 1\2\3,1\2\4,1\2\5,1\2\6
REM DIRNAME folder01,folder02,folder03,folder04,folder05,folder06
TITLE ""
FILE "006 006.mp3" MP3
  TRACK 01 AUDIO
    TITLE "0:"
    INDEX 01 00:00:00
  TRACK 02 AUDIO
    TITLE "3:cjc157_0162"
    INDEX 01 00:00:11
  TRACK 03 AUDIO
    TITLE "0:"
    INDEX 01 00:01:42
  TRACK 04 AUDIO
    TITLE "4:cjc157_0163"
    INDEX 01 00:02:16
  TRACK 05 AUDIO
    TITLE "0:"
    INDEX 01 00:03:19
  TRACK 06 AUDIO
    TITLE "5:cjc157_0164"
    INDEX 01 00:03:63
  TRACK 07 AUDIO
    TITLE "0:"
    INDEX 01 00:06:26
  TRACK 08 AUDIO
    TITLE "5:cjc157_0165"
    INDEX 01 00:06:71
  TRACK 09 AUDIO
    TITLE "0:"
    INDEX 01 00:08:50
  TRACK 10 AUDIO
    TITLE "3:cjc157_0166"
    INDEX 01 00:09:20
  TRACK 11 AUDIO
    TITLE "0:"
    INDEX 01 00:10:49
  TRACK 12 AUDIO
    TITLE "4:cjc157_0167"
    INDEX 01 00:11:21
  TRACK 13 AUDIO
    TITLE "0:"
    INDEX 01 00:12:28
  TRACK 14 AUDIO
    TITLE "5:cjc157_0168"
    INDEX 01 00:13:02
  TRACK 15 AUDIO
    TITLE "0:"
    INDEX 01 00:14:47
  TRACK 16 AUDIO
    TITLE "5:cjc157_0169"
    INDEX 01 00:15:15
  TRACK 17 AUDIO
    TITLE "0:"
    INDEX 01 00:16:71
  TRACK 18 AUDIO
    TITLE "3:cjc157_0170"
    INDEX 01 00:17:43
  TRACK 19 AUDIO
    TITLE "0:"
    INDEX 01 00:18:66
  TRACK 20 AUDIO
    TITLE "4:cjc157_0171"
    INDEX 01 00:19:38
  TRACK 21 AUDIO
    TITLE "0:"
    INDEX 01 00:20:43
  TRACK 22 AUDIO
    TITLE "5:cjc157_0172"
    INDEX 01 00:21:13
  TRACK 23 AUDIO
    TITLE "0:"
    INDEX 01 00:23:32
  TRACK 24 AUDIO
    TITLE "5:cjc157_0173"
    INDEX 01 00:24:00
  TRACK 25 AUDIO
    TITLE "0:"
    INDEX 01 00:26:07
  TRACK 26 AUDIO
    TITLE "3:cjc157_0174"
    INDEX 01 00:26:54
  TRACK 27 AUDIO
    TITLE "0:"
    INDEX 01 00:28:08
  TRACK 28 AUDIO
    TITLE "4:cjc157_0175"
    INDEX 01 00:28:55
  TRACK 29 AUDIO
    TITLE "0:"
    INDEX 01 00:29:58
  TRACK 30 AUDIO
    TITLE "5:cjc157_0176"
    INDEX 01 00:30:28
  TRACK 31 AUDIO
    TITLE "0:"
    INDEX 01 00:33:34
  TRACK 32 AUDIO
    TITLE "3:cjc157_0177"
    INDEX 01 00:34:02
  TRACK 33 AUDIO
    TITLE "0:"
    INDEX 01 00:35:39
  TRACK 34 AUDIO
    TITLE "4:cjc157_0178"
    INDEX 01 00:36:13
  TRACK 35 AUDIO
    TITLE "0:"
    INDEX 01 00:37:18
  TRACK 36 AUDIO
    TITLE "5:cjc157_0179"
    INDEX 01 00:37:61
  TRACK 37 AUDIO
    TITLE "0:"
    INDEX 01 00:40:50
  TRACK 38 AUDIO
    TITLE "5:cjc157_0180"
    INDEX 01 00:41:18
  TRACK 39 AUDIO
    TITLE "0:"
    INDEX 01 00:44:20
  TRACK 40 AUDIO
    TITLE "3:cjc157_0181"
    INDEX 01 00:44:67
  TRACK 41 AUDIO
    TITLE "0:"
    INDEX 01 00:46:27
  TRACK 42 AUDIO
    TITLE "4:cjc157_0182"
    INDEX 01 00:47:03
  TRACK 43 AUDIO
    TITLE "0:"
    INDEX 01 00:48:22
  TRACK 44 AUDIO
    TITLE "5:cjc157_0183"
    INDEX 01 00:48:63
  TRACK 45 AUDIO
    TITLE "0:"
    INDEX 01 00:50:44
  TRACK 46 AUDIO
    TITLE "5:cjc157_0184"
    INDEX 01 00:51:15
  TRACK 47 AUDIO
    TITLE "0:"
    INDEX 01 00:52:65
  TRACK 48 AUDIO
    TITLE "3:cjc157_0185"
    INDEX 01 00:53:33
  TRACK 49 AUDIO
    TITLE "0:"
    INDEX 01 00:54:62
  TRACK 50 AUDIO
    TITLE "4:cjc157_0186"
    INDEX 01 00:55:32
  TRACK 51 AUDIO
    TITLE "0:"
    INDEX 01 00:56:51
  TRACK 52 AUDIO
    TITLE "5:cjc157_0187"
    INDEX 01 00:57:23
  TRACK 53 AUDIO
    TITLE "0:"
    INDEX 01 00:59:20
  TRACK 54 AUDIO
    TITLE "3:cjc157_0188"
    INDEX 01 00:59:63
  TRACK 55 AUDIO
    TITLE "0:"
    INDEX 01 01:00:72
  TRACK 56 AUDIO
    TITLE "4:cjc157_0189"
    INDEX 01 01:01:44
  TRACK 57 AUDIO
    TITLE "0:"
    INDEX 01 01:02:57
  TRACK 58 AUDIO
    TITLE "5:cjc157_0190"
    INDEX 01 01:03:29
  TRACK 59 AUDIO
    TITLE "0:"
    INDEX 01 01:05:58
  TRACK 60 AUDIO
    TITLE "5:cjc157_0191"
    INDEX 01 01:06:26
  TRACK 61 AUDIO
    TITLE "0:"
    INDEX 01 01:09:09
  TRACK 62 AUDIO
    TITLE "3:cjc157_0192"
    INDEX 01 01:09:54
  TRACK 63 AUDIO
    TITLE "0:"
    INDEX 01 01:10:61
  TRACK 64 AUDIO
    TITLE "4:cjc157_0193"
    INDEX 01 01:11:31
  TRACK 65 AUDIO
    TITLE "0:"
    INDEX 01 01:12:40
  TRACK 66 AUDIO
    TITLE "5:cjc157_0194"
    INDEX 01 01:13:06
  TRACK 67 AUDIO
    TITLE "0:"
    INDEX 01 01:14:72
  TRACK 68 AUDIO
    TITLE "5:cjc157_0195"
    INDEX 01 01:15:46
  TRACK 69 AUDIO
    TITLE "0:"
    INDEX 01 01:17:24
  TRACK 70 AUDIO
    TITLE "3:cjc157_0196"
    INDEX 01 01:17:67
  TRACK 71 AUDIO
    TITLE "0:"
    INDEX 01 01:19:27
  TRACK 72 AUDIO
    TITLE "4:cjc157_0197"
    INDEX 01 01:19:70
  TRACK 73 AUDIO
    TITLE "0:"
    INDEX 01 01:21:06
  TRACK 74 AUDIO
    TITLE "5:cjc157_0198"
    INDEX 01 01:21:53
  TRACK 75 AUDIO
    TITLE "0:"
    INDEX 01 01:24:37
  TRACK 76 AUDIO
    TITLE "5:cjc157_0199"
    INDEX 01 01:25:13
  TRACK 77 AUDIO
    TITLE "0:"
    INDEX 01 01:27:63
